<?xml version="1.0" standalone="no"?>
<!DOCTYPE svg PUBLIC "-//W3C//DTD SVG 20010904//EN"
 "http://www.w3.org/TR/2001/REC-SVG-20010904/DTD/svg10.dtd">
<svg version="1.0" xmlns="http://www.w3.org/2000/svg"
 width="1024.000000pt" height="1024.000000pt" viewBox="0 0 1024.000000 1024.000000"
 preserveAspectRatio="xMidYMid meet">

<g transform="translate(0.000000,1024.000000) scale(0.100000,-0.100000)"
fill="#000000" stroke="none">
<path d="M3760 8679 c-382 -31 -706 -340 -775 -738 -23 -129 -22 -2627 0
-2757 34 -190 109 -344 234 -477 115 -122 271 -214 436 -258 79 -21 89 -21
1160 -20 593 1 1081 4 1084 6 2 3 -389 5 -869 5 -480 0 -871 2 -869 4 3 3 71
6 152 8 127 2 147 5 142 18 -4 11 -2 11 8 -2 13 -16 15 -16 35 3 20 18 22 18
22 2 0 -15 2 -15 16 3 8 10 13 13 9 7 -3 -7 -2 -13 3 -13 14 0 21 35 10 54
-10 18 2 22 19 5 9 -9 11 -7 7 7 -3 13 -15 21 -32 22 -68 6 -104 23 -92 42 7
11 10 11 10 2 0 -7 5 -10 12 -6 6 4 8 3 4 -4 -3 -6 -2 -13 4 -17 10 -6 21 28
18 61 -1 11 -9 20 -17 20 -9 -1 -16 4 -16 9 0 6 16 9 35 8 l35 -3 -30 19 c-21
13 -34 15 -42 8 -9 -6 -13 -6 -13 1 0 6 5 14 10 17 6 3 10 14 10 23 0 14 -2
13 -13 -3 -10 -12 -16 -14 -21 -7 -4 7 -2 12 4 12 6 0 8 5 5 10 -3 6 1 10 9
10 9 0 16 6 17 13 0 6 4 3 9 -8 5 -11 9 -14 9 -6 1 7 7 11 16 7 8 -3 15 -1 15
5 0 6 4 8 9 4 18 -11 7 -47 -18 -56 -13 -5 -21 -12 -18 -16 4 -3 17 2 31 10
17 12 23 24 21 42 -1 15 2 24 9 22 11 -4 36 16 36 29 0 5 -5 3 -12 -4 -16 -16
-31 -15 -22 1 5 8 2 8 -9 -2 -11 -9 -17 -10 -17 -2 0 6 -8 11 -17 10 -11 0
-13 -3 -5 -6 6 -2 12 -9 12 -14 0 -6 -9 -5 -21 1 -11 7 -27 9 -35 6 -9 -3 -12
-1 -9 4 3 6 13 10 21 10 8 0 14 7 14 16 0 14 -3 14 -15 4 -13 -11 -14 -10 -9
4 3 9 12 16 20 16 8 0 14 9 14 20 0 14 -7 20 -22 21 -25 1 -17 3 92 29 30 7
86 26 123 42 37 16 73 26 80 22 7 -4 9 -4 5 1 -7 7 73 65 89 65 3 0 30 18 60
40 29 23 53 38 53 36 0 -3 19 15 41 39 23 25 45 42 50 39 5 -3 8 -2 7 3 -4 13
93 124 103 117 5 -3 8 -1 7 4 -2 5 20 41 49 78 28 38 63 89 76 113 23 40 26
42 30 20 2 -13 4 -4 3 20 -1 40 -3 44 -35 55 -19 6 -37 17 -39 25 -3 8 0 11 7
7 6 -4 11 -2 11 3 0 6 10 11 23 11 15 0 18 3 9 8 -23 15 0 48 31 43 4 0 7 11
7 25 0 14 4 23 9 20 5 -3 7 -15 4 -26 -3 -12 0 -20 6 -20 7 0 10 4 7 9 -6 9
22 26 37 22 5 -1 6 3 2 8 -3 6 -12 8 -19 5 -8 -3 -17 -1 -21 5 -3 6 0 11 7 11
9 0 9 3 -2 10 -13 8 -13 10 2 10 9 0 18 -5 20 -11 2 -6 9 0 16 15 10 23 10 26
-9 26 -11 0 -18 -3 -16 -7 5 -8 -101 -9 -109 -1 -8 8 153 19 171 11 14 -5 16
-3 10 7 -6 10 -4 12 9 7 9 -4 15 -3 12 2 -3 5 16 14 42 21 62 17 130 49 161
78 14 13 31 20 40 17 8 -3 12 -3 8 1 -10 11 23 44 44 44 16 0 33 16 34 31 0
15 117 129 126 124 5 -4 9 0 9 8 0 8 33 49 73 90 60 63 76 74 87 64 12 -10 12
-9 2 4 -10 13 -6 22 26 50 20 19 40 33 44 32 5 -2 7 1 5 6 -1 4 28 39 66 76
37 37 67 63 67 58 0 -5 7 -10 15 -10 12 0 12 3 2 16 -13 15 -13 16 35 -4 14
-6 16 -1 11 34 -5 40 0 47 30 42 5 -1 6 3 2 9 -3 5 -2 10 3 10 16 0 22 -13 11
-26 -7 -8 -7 -14 1 -19 9 -6 15 14 11 44 -2 7 2 10 8 6 6 -3 11 -14 11 -23 1
-12 5 -10 15 8 8 14 14 21 15 16 0 -5 6 -3 13 3 8 6 18 7 23 3 4 -4 2 2 -6 12
-10 13 -11 17 -2 12 9 -6 11 -1 8 18 -6 32 7 34 22 4 9 -19 11 -20 11 -5 1 10
-6 26 -15 34 -13 13 -13 17 -2 24 10 7 10 9 -1 9 -24 0 5 24 29 25 22 0 28 17
9 24 -7 2 -9 -1 -5 -8 4 -6 2 -11 -3 -11 -19 0 -12 19 10 31 17 9 20 8 13 -3
-6 -11 -5 -11 9 1 25 20 22 -3 -5 -39 -16 -22 -24 -27 -30 -18 -5 8 -7 3 -5
-12 2 -14 12 -27 22 -28 10 -2 15 0 11 6 -3 6 -1 14 5 18 8 4 9 3 5 -4 -4 -7
-2 -12 3 -12 6 0 11 8 11 18 0 10 12 29 27 43 14 13 23 18 19 12 -4 -7 -2 -13
4 -13 6 0 9 -4 5 -10 -3 -5 -12 -7 -20 -3 -8 3 -15 -1 -15 -8 0 -7 3 -9 7 -6
3 4 12 -1 20 -11 8 -9 12 -11 8 -4 -3 7 3 24 15 39 16 20 18 28 8 35 -10 6 -9
8 3 8 10 0 15 8 15 22 -1 13 5 23 12 24 6 1 16 2 22 3 5 0 7 8 4 16 -7 17 7
20 22 5 7 -7 17 -5 30 6 10 8 13 12 5 8 -10 -5 -12 0 -9 22 3 16 3 23 1 17 -5
-16 -43 1 -43 19 0 6 3 8 7 5 3 -4 15 0 25 10 19 17 25 39 8 28 -6 -3 -7 1 -4
9 3 9 9 16 13 16 12 0 10 -44 -2 -53 -7 -5 0 -6 18 -2 35 8 32 5 37 30 1 11
-3 20 -9 20 -7 0 -12 5 -10 10 1 6 6 9 11 7 5 -2 6 4 3 13 -7 18 -3 19 25 4
25 -14 35 -4 17 17 -13 16 -11 17 13 11 17 -5 30 -3 35 5 14 23 11 38 -6 38
-10 0 -18 6 -18 13 0 11 6 11 30 -1 19 -10 25 -17 17 -22 -8 -5 -9 -10 -2 -14
6 -4 8 -14 5 -24 -4 -13 -2 -13 10 3 9 12 11 22 5 26 -5 3 -9 9 -9 13 3 23 0
36 -8 31 -5 -3 -12 -1 -16 5 -3 5 3 10 14 10 12 0 21 6 21 13 0 6 5 4 11 -5
12 -22 45 -24 52 -3 9 23 -13 29 -29 9 -15 -18 -15 -18 -8 1 4 11 7 27 8 36 0
9 6 15 13 12 7 -3 10 -10 6 -17 -3 -6 -3 -8 2 -4 4 4 17 3 29 -3 20 -10 20
-10 2 5 -19 16 -19 16 2 16 12 0 22 4 22 9 0 5 -11 8 -25 5 -14 -2 -25 -1 -24
3 4 22 -2 42 -13 46 -7 2 0 3 16 1 21 -3 27 0 22 11 -3 8 0 17 6 21 6 4 8 3 5
-2 -9 -16 7 -32 37 -38 33 -6 47 -16 22 -16 -14 0 -15 -4 -6 -20 8 -15 8 -20
-3 -20 -7 0 -13 10 -14 21 -2 28 -11 35 -25 21 -9 -9 -7 -13 4 -17 13 -5 14
-13 6 -42 -7 -26 -6 -38 2 -47 10 -8 11 -7 8 4 -8 22 11 52 28 46 9 -3 12 -1
9 4 -3 6 -2 10 2 10 5 0 18 7 29 15 18 14 17 15 -11 9 -21 -4 -26 -3 -16 4 7
5 15 22 17 38 1 16 10 33 18 40 9 6 12 15 8 19 -4 4 -1 6 7 3 8 -2 15 -12 17
-22 2 -12 -2 -16 -12 -12 -16 6 -19 -10 -3 -19 25 -16 26 -9 30 285 2 124 6
-349 9 -1050 l5 -1275 0 1330 0 1330 -23 79 c-99 341 -358 579 -717 658 -48
10 -326 13 -1380 13 -726 0 -1354 -3 -1395 -6z m2509 -14 c-3 -2 -250 -5 -549
-5 -341 -1 -539 -5 -530 -10 8 -6 10 -10 5 -10 -6 0 -16 5 -23 12 -9 9 -12 9
-12 0 0 -16 -52 -15 -69 1 -11 10 -13 10 -7 0 8 -14 -2 -15 -119 -15 -50 0
-56 -2 -42 -13 9 -7 17 -15 17 -19 0 -11 -28 -6 -32 6 -3 7 -7 5 -11 -6 -4
-10 -3 -15 3 -11 6 3 10 1 10 -4 0 -6 -5 -11 -11 -11 -5 0 -7 -5 -3 -12 5 -8
2 -9 -9 -5 -10 3 -17 2 -17 -3 0 -15 21 -23 33 -11 6 6 16 11 21 11 6 0 0 -7
-12 -16 -12 -8 -20 -19 -17 -24 3 -4 -1 -11 -7 -13 -7 -3 -4 -6 7 -6 16 -1 17
-3 5 -11 -16 -10 -36 13 -25 29 3 5 0 13 -6 17 -8 4 -9 3 -5 -4 5 -8 -3 -11
-24 -8 l-31 4 21 -20 c11 -10 18 -23 15 -29 -4 -5 0 -9 7 -10 10 0 10 -2 -1
-6 -11 -5 -11 -7 0 -14 11 -7 10 -9 -3 -9 -9 0 -20 5 -23 10 -3 6 -1 10 5 10
6 0 8 5 4 12 -5 8 -11 5 -17 -10 -6 -12 -14 -22 -19 -22 -5 0 -6 5 -2 12 4 7
3 8 -5 4 -6 -4 -9 -11 -6 -16 2 -4 -9 -13 -25 -20 -33 -14 -42 -35 -10 -25 15
5 20 2 20 -12 0 -15 2 -16 11 -3 9 13 10 13 6 0 -2 -8 -11 -14 -19 -12 -9 1
-21 -5 -28 -13 -7 -8 -9 -15 -5 -15 4 0 -4 -12 -19 -26 -14 -15 -26 -31 -26
-36 0 -5 -6 -6 -12 -2 -17 11 -48 13 -48 3 0 -9 32 -23 45 -20 29 8 74 7 69 0
-3 -5 -21 -9 -40 -9 -21 0 -33 -4 -29 -10 4 -6 -1 -7 -12 -3 -16 6 -16 5 -4
-10 7 -9 10 -17 7 -17 -4 0 -1 -10 5 -22 9 -18 9 -20 0 -12 -7 6 -13 18 -14
25 -4 22 -18 40 -27 34 -4 -3 -7 3 -6 12 0 9 -6 18 -14 20 -12 4 -12 3 -1 -5
10 -7 10 -11 1 -17 -7 -4 -16 -2 -20 5 -10 16 -20 -1 -15 -26 2 -10 4 -27 4
-37 1 -10 11 -22 24 -27 15 -6 17 -9 6 -9 -15 -1 -30 -21 -33 -43 -3 -22 -16
-17 -16 7 l0 28 -27 -29 c-15 -16 -31 -28 -35 -27 -4 2 -8 -9 -8 -23 0 -15 -8
-33 -17 -41 -10 -8 -12 -12 -6 -8 7 3 21 1 30 -4 11 -6 13 -11 5 -11 -7 0 -11
-4 -8 -8 2 -4 0 -14 -6 -22 -8 -12 -9 -12 -4 2 3 11 -2 22 -15 29 -14 7 -19
17 -16 30 3 10 1 19 -5 19 -6 0 -8 -11 -6 -25 3 -14 2 -25 -1 -25 -13 0 -31
-54 -20 -61 6 -4 3 -8 -9 -11 -11 -3 -26 -2 -33 3 -12 8 -6 13 12 11 3 -1 6 6
6 14 0 12 -3 12 -18 -2 -16 -14 -18 -14 -29 3 -9 13 -10 14 -7 2 3 -9 0 -23
-6 -30 -8 -8 -5 -8 7 1 18 14 18 13 11 -9 -5 -16 -4 -21 4 -17 6 4 20 9 30 11
15 3 19 -1 16 -15 -2 -10 3 -21 11 -24 16 -6 17 -15 5 -35 -8 -12 -12 -12 -25
-2 -18 15 -58 11 -62 -7 -1 -7 0 -8 3 -2 3 7 11 7 24 0 20 -11 26 -30 8 -30
-5 0 -7 5 -4 10 3 6 -1 10 -9 10 -15 0 -17 -7 -19 -57 -1 -10 5 -17 12 -15 7
1 10 -2 6 -8 -4 -7 -12 -7 -18 -2 -7 4 -19 8 -27 7 -8 0 -29 2 -47 6 -24 5
-30 3 -26 -6 2 -8 11 -16 19 -19 9 -3 12 -1 9 4 -3 6 -1 10 5 10 6 0 8 -11 6
-25 -3 -14 0 -25 5 -25 5 0 9 -5 9 -10 0 -7 -6 -7 -20 0 -15 8 -20 8 -20 -2 0
-10 -3 -9 -9 1 -13 20 -38 22 -46 3 -6 -17 13 -34 29 -25 5 3 6 1 2 -6 -4 -6
-2 -19 6 -28 11 -15 10 -16 -10 -10 -20 5 -23 2 -19 -13 3 -14 1 -17 -11 -13
-11 5 -13 3 -6 -8 15 -25 14 -42 -2 -28 -7 6 -11 15 -8 20 3 5 -5 9 -18 10
-13 0 -17 3 -10 6 17 6 15 23 -2 23 -8 0 -17 6 -19 13 -3 6 -4 -1 -4 -18 1
-16 9 -36 17 -43 13 -11 12 -12 -6 -7 -20 5 -40 -16 -36 -37 1 -4 -4 -5 -11
-2 -8 3 -14 11 -14 18 0 9 7 12 16 8 14 -5 14 -4 2 11 -12 16 -12 17 5 10 17
-6 17 -5 5 10 -7 9 -18 14 -23 11 -6 -4 -14 -1 -18 6 -5 9 -9 9 -14 1 -4 -6
-2 -11 3 -11 6 0 11 -4 11 -10 0 -5 -7 -10 -15 -10 -8 0 -15 5 -15 11 0 5 -5
7 -10 4 -6 -3 -13 1 -16 9 -3 9 -10 13 -16 10 -5 -3 -1 -12 10 -20 11 -7 22
-28 24 -46 l5 -32 -18 23 c-11 13 -17 26 -14 30 2 4 -2 8 -10 8 -8 0 -15 -4
-15 -9 0 -4 5 -8 10 -8 6 0 10 -7 10 -16 0 -14 -3 -14 -15 -4 -14 11 -19 7
-16 -12 0 -5 -6 -8 -14 -8 -8 0 -15 4 -15 9 0 20 -26 18 -27 -3 0 -11 1 -15 4
-8 4 10 8 10 19 1 8 -6 21 -8 31 -4 44 19 74 6 51 -22 -7 -9 -7 -13 0 -13 5 0
12 7 16 15 7 20 36 19 36 -1 0 -8 4 -13 9 -9 5 3 12 1 15 -4 4 -6 -8 -8 -29
-5 -19 2 -35 1 -35 -3 0 -5 -13 -8 -30 -8 -16 0 -30 3 -30 8 0 4 7 7 15 7 8 0
15 8 15 18 0 13 -2 14 -9 3 -5 -7 -14 -10 -20 -7 -6 4 -11 3 -11 -2 0 -5 -11
-8 -24 -7 -14 2 -33 -3 -43 -11 -16 -13 -16 -14 0 -8 11 4 17 1 17 -10 0 -10
-5 -13 -17 -9 -11 4 -14 3 -9 -6 4 -6 16 -9 27 -6 11 4 28 1 37 -7 15 -12 16
-11 3 5 -12 15 -11 17 3 17 10 0 14 -4 11 -10 -3 -5 0 -10 7 -10 10 0 10 -2
-1 -9 -8 -5 -24 -6 -37 -1 -18 7 -22 6 -18 -4 3 -8 0 -17 -7 -22 -9 -5 -11 -2
-6 8 4 11 -1 18 -14 21 -15 4 -17 2 -9 -13 6 -10 10 -21 10 -23 0 -6 -52 -21
-64 -18 -5 1 -6 -5 -3 -13 4 -11 1 -13 -10 -9 -13 5 -14 3 -3 -18 l13 -24 -22
19 c-18 17 -21 17 -15 3 6 -16 -5 -22 -30 -18 -5 1 -4 -5 4 -13 13 -17 25 -22
16 -8 -2 4 4 9 15 9 10 1 19 -3 19 -8 0 -6 4 -8 9 -4 5 3 12 1 16 -4 3 -6 -9
-9 -27 -9 -18 1 -48 -2 -67 -6 -24 -6 -31 -5 -27 3 4 6 2 11 -4 11 -6 0 -8
-11 -6 -25 5 -24 -2 -30 -31 -26 -7 1 -13 -5 -13 -14 0 -8 -4 -16 -10 -16 -5
-1 -14 -2 -19 -3 -5 0 -13 -5 -18 -10 -5 -5 -3 -6 5 -2 6 4 12 2 12 -3 0 -16
-11 -14 -32 6 -17 15 -18 15 -6 -18 6 -18 13 -28 16 -21 2 6 8 12 13 12 15 0
1 -18 -23 -31 -15 -8 -19 -8 -14 0 4 6 1 11 -7 11 -8 0 -14 -9 -13 -22 1 -18
-5 -22 -34 -24 -23 -2 -29 0 -20 6 8 5 17 7 21 4 4 -2 10 0 13 5 12 19 -14 21
-35 3 -13 -13 -17 -22 -10 -27 6 -3 11 -12 11 -18 0 -7 -4 -6 -10 3 -5 8 -10
11 -10 6 0 -6 -7 -1 -16 10 -8 10 -12 13 -8 5 3 -7 0 -17 -7 -22 -11 -7 -10
-9 4 -9 9 0 17 -4 17 -9 0 -5 8 -8 18 -6 9 2 21 4 25 4 5 1 5 6 2 11 -3 6 -1
10 4 10 6 0 11 -5 11 -11 0 -5 6 -7 13 -4 6 4 3 -1 -7 -9 -18 -14 -45 -21 -69
-17 -4 1 -12 -10 -17 -23 -5 -13 -15 -28 -22 -32 -11 -6 -11 -5 0 8 11 14 10
16 -7 11 -13 -3 -18 -12 -16 -24 2 -11 -2 -19 -10 -19 -7 0 -16 -6 -18 -12 -4
-9 -6 -10 -6 -1 -1 6 5 18 12 25 16 18 20 38 6 38 -5 0 -8 4 -5 9 9 14 -3 38
-19 38 -9 0 -15 -9 -14 -21 0 -12 3 -15 6 -8 8 21 21 13 21 -13 0 -14 -4 -25
-9 -25 -5 0 -9 5 -9 10 0 6 -5 10 -11 10 -5 0 -8 -4 -5 -9 4 -5 -3 -7 -14 -4
-16 4 -20 0 -20 -18 0 -19 -2 -21 -10 -9 -6 10 -10 11 -10 3 0 -7 -4 -13 -9
-13 -5 0 -7 8 -4 19 3 10 0 21 -5 25 -11 7 -25 -21 -16 -35 3 -5 -7 -14 -22
-19 -15 -6 -28 -9 -28 -8 -1 2 -7 14 -14 28 -12 25 -12 25 -6 1 5 -20 3 -23
-11 -18 -9 4 -22 7 -28 8 -7 0 -3 4 8 9 19 8 19 9 -2 9 -15 1 -23 -5 -23 -15
0 -8 -4 -13 -8 -10 -5 3 -9 -1 -9 -9 0 -8 4 -12 8 -10 4 3 10 -2 13 -11 3 -8
2 -13 -3 -9 -5 3 -12 -1 -15 -7 -5 -10 -7 -10 -12 0 -5 10 -9 10 -20 1 -8 -6
-14 -10 -15 -8 -7 36 -6 40 6 35 8 -3 17 -1 20 4 4 6 3 10 -2 11 -4 0 -18 2
-30 3 -17 2 -20 -2 -17 -21 3 -18 0 -23 -16 -23 -16 0 -20 6 -19 28 1 15 0 36
-2 47 -2 11 -6 -110 -9 -270 -4 -192 -6 -38 -7 460 -2 807 -1 832 50 965 30
81 74 156 140 240 123 158 307 270 508 309 45 9 2586 15 2578 6z m48 -1 c-3
-3 -12 -4 -19 -1 -8 3 -5 6 6 6 11 1 17 -2 13 -5z m-1322 -44 c3 -6 -1 -7 -9
-4 -18 7 -21 14 -7 14 6 0 13 -4 16 -10z m-30 -9 c3 -5 2 -12 -3 -15 -5 -3 -9
1 -9 9 0 17 3 19 12 6z m-11 -30 c11 -4 15 -10 9 -14 -5 -3 -19 0 -29 8 -20
15 -11 18 20 6z m-132 -169 c3 -11 0 -19 -8 -19 -8 0 -14 9 -14 19 0 10 4 18
9 18 5 0 11 -8 13 -18z m-32 -2 c0 -5 -4 -10 -10 -10 -5 0 -10 5 -10 10 0 6 5
10 10 10 6 0 10 -4 10 -10z m90 0 c0 -5 -4 -10 -10 -10 -5 0 -10 5 -10 10 0 6
5 10 10 10 6 0 10 -4 10 -10z m10 -43 c0 -2 -10 -12 -22 -23 l-23 -19 19 23
c18 21 26 27 26 19z m-80 -27 c0 -5 -5 -10 -11 -10 -5 0 -7 5 -4 10 3 6 8 10
11 10 2 0 4 -4 4 -10z m-77 -43 c3 -8 -1 -14 -8 -14 -7 0 -11 6 -8 14 3 7 6
13 8 13 2 0 5 -6 8 -13z m-10 -72 c-3 -9 -8 -14 -10 -11 -3 3 -2 9 2 15 9 16
15 13 8 -4z m-23 -10 c0 -8 -4 -15 -10 -15 -5 0 -7 7 -4 15 4 8 8 15 10 15 2
0 4 -7 4 -15z m-72 -12 c-8 -10 -14 -10 -24 -2 -20 16 -18 19 10 17 19 -2 22
-5 14 -15z m1477 -57 c307 -86 540 -322 616 -626 18 -72 21 -104 17 -220 -5
-116 -10 -148 -36 -230 -51 -154 -123 -263 -284 -424 -43 -44 -55 -62 -46 -68
10 -6 8 -8 -4 -6 -12 2 -119 -98 -315 -293 -321 -318 -366 -354 -515 -406
-107 -38 -283 -44 -393 -14 -170 47 -319 155 -372 269 -30 65 -29 146 4 190
33 44 82 72 127 72 47 0 80 -18 152 -83 28 -26 76 -59 105 -74 48 -25 65 -28
149 -28 151 0 151 0 591 438 274 273 384 388 409 431 89 153 92 354 7 498 -34
58 -122 140 -185 172 -156 79 -347 71 -490 -20 -29 -19 -153 -132 -275 -252
-187 -183 -234 -224 -290 -252 -82 -40 -180 -51 -250 -27 -41 14 -147 84 -147
97 0 6 518 524 630 630 134 127 250 195 394 232 90 23 309 19 401 -6z m-1477
-31 c-3 -3 -9 2 -12 12 -6 14 -5 15 5 6 7 -7 10 -15 7 -18z m-90 -66 c-7 -4
-16 -3 -20 4 -11 18 2 29 18 16 12 -10 12 -14 2 -20z m52 -19 c0 -5 -4 -10
-10 -10 -5 0 -10 5 -10 10 0 6 5 10 10 10 6 0 10 -4 10 -10z m-44 -67 c-8 -8
-36 5 -36 17 0 7 6 7 21 0 11 -7 18 -14 15 -17z m-84 -25 c-7 -7 -12 -8 -12
-2 0 14 12 26 19 19 2 -3 -1 -11 -7 -17z m2785 0 c-3 -8 -6 -5 -6 6 -1 11 2
17 5 13 3 -3 4 -12 1 -19z m10 -50 c-3 -8 -6 -5 -6 6 -1 11 2 17 5 13 3 -3 4
-12 1 -19z m-2797 2 c-8 -5 -19 -10 -25 -10 -5 0 -3 5 5 10 8 5 20 10 25 10 6
0 3 -5 -5 -10z m2797 -42 c-3 -8 -6 -5 -6 6 -1 11 2 17 5 13 3 -3 4 -12 1 -19z
m-2842 -68 c3 -5 1 -10 -4 -10 -6 0 -11 5 -11 10 0 6 2 10 4 10 3 0 8 -4 11
-10z m-105 -65 c0 -8 -2 -15 -4 -15 -2 0 -6 7 -10 15 -3 8 -1 15 4 15 6 0 10
-7 10 -15z m-25 -65 c3 -5 2 -10 -4 -10 -5 0 -13 5 -16 10 -3 6 -2 10 4 10 5
0 13 -4 16 -10z m-225 -109 c0 -5 -7 -11 -14 -14 -10 -4 -13 -1 -9 9 6 15 23
19 23 5z m120 -12 c0 -11 -30 -12 -48 0 -9 5 -3 8 17 9 17 0 31 -4 31 -9z
m2567 -21 c-3 -8 -6 -5 -6 6 -1 11 2 17 5 13 3 -3 4 -12 1 -19z m-2617 -13
c11 -13 10 -14 -4 -9 -9 3 -16 10 -16 15 0 13 6 11 20 -6z m51 -8 c-8 -8 -14
-7 -23 2 -11 10 -9 11 6 5 15 -6 17 -4 11 6 -6 9 -4 11 4 5 9 -5 10 -10 2 -18z
m2576 -29 c-3 -8 -6 -5 -6 6 -1 11 2 17 5 13 3 -3 4 -12 1 -19z m-2812 -8 c3
-5 4 -10 1 -10 -2 0 -12 -3 -20 -6 -12 -5 -15 -2 -10 10 7 18 20 21 29 6z
m105 -25 c5 3 12 0 16 -6 4 -7 3 -9 -4 -5 -6 3 -13 2 -17 -4 -10 -16 -25 -1
-18 17 4 11 8 13 11 5 2 -7 8 -10 12 -7z m3189 -8 c0 -9 -2 -8 -6 1 -2 6 -10
9 -15 6 -7 -4 -8 -2 -4 5 9 13 26 5 25 -12z m-472 -29 c-3 -7 -5 -2 -5 12 0
14 2 19 5 13 2 -7 2 -19 0 -25z m458 2 c3 -5 -1 -10 -9 -10 -9 0 -16 5 -16 10
0 6 4 10 9 10 6 0 13 -4 16 -10z m-3291 -9 c3 -5 -1 -11 -9 -14 -9 -4 -12 -1
-8 9 6 16 10 17 17 5z m3136 -7 c0 -2 -7 -4 -15 -4 -8 0 -15 4 -15 10 0 5 7 7
15 4 8 -4 15 -8 15 -10z m-3080 -18 c0 -2 -8 -10 -17 -17 -16 -13 -17 -12 -4
4 13 16 21 21 21 13z m2777 -43 c-3 -10 -5 -2 -5 17 0 19 2 27 5 18 2 -10 2
-26 0 -35z m-2893 31 c13 -5 14 -9 4 -21 -10 -13 -13 -13 -20 4 -6 13 -7 11
-4 -10 3 -21 0 -27 -11 -23 -8 3 -16 6 -19 6 -7 0 10 35 20 42 13 9 11 9 30 2z
m3290 -9 c-4 -8 -8 -15 -10 -15 -2 0 -4 7 -4 15 0 8 4 15 10 15 5 0 7 -7 4
-15z m-154 -56 c0 -6 -4 -7 -10 -4 -5 3 -10 11 -10 16 0 6 5 7 10 4 6 -3 10
-11 10 -16z m-243 -31 c-3 -7 -5 -2 -5 12 0 14 2 19 5 13 2 -7 2 -19 0 -25z
m-2953 -26 c2 -4 -7 -9 -20 -10 -14 -1 -32 -9 -40 -17 -19 -19 -30 -20 -15 -2
6 8 7 18 3 22 -4 5 -2 6 3 3 6 -3 19 -2 30 3 27 10 33 10 39 1z m2943 -29 c-3
-10 -5 -4 -5 12 0 17 2 24 5 18 2 -7 2 -21 0 -30z m219 22 c-11 -8 -27 -15
-35 -15 -9 1 -2 7 14 15 39 18 44 18 21 0z m-3251 -4 c3 -5 2 -12 -3 -15 -5
-3 -9 1 -9 9 0 17 3 19 12 6z m-45 -36 c5 3 7 -3 5 -12 -2 -10 -4 -23 -4 -28
-1 -12 -40 -15 -42 -3 -5 27 -3 34 11 45 8 6 16 8 18 2 2 -5 7 -7 12 -4z
m3060 -67 c-7 -29 -21 -69 -32 -88 -11 -19 -16 -26 -12 -15 4 11 17 52 28 92
24 82 34 89 16 11z m183 32 c9 -11 13 -20 7 -20 -5 0 -14 9 -20 20 -6 11 -9
20 -8 20 2 0 11 -9 21 -20z m-2052 -134 c244 -64 424 -176 480 -299 11 -26 19
-65 19 -103 0 -139 -121 -222 -248 -169 -20 9 -75 54 -123 100 -115 113 -170
139 -294 140 -140 0 -151 -8 -469 -328 -358 -361 -381 -398 -381 -607 1 -102
4 -122 28 -181 111 -266 420 -383 676 -257 51 24 100 65 231 193 120 117 177
166 204 175 62 20 139 7 253 -42 l102 -45 -41 -64 c-88 -139 -240 -311 -348
-394 -92 -70 -211 -133 -326 -171 -96 -32 -124 -37 -238 -42 -144 -5 -231 6
-341 45 -214 77 -386 228 -485 428 -63 129 -84 224 -83 375 3 183 53 337 160
489 71 100 582 607 671 666 173 113 354 143 553 91z m-1361 -9 c0 -2 -12 -14
-26 -28 l-27 -24 18 28 c14 22 35 36 35 24z m75 -17 c3 -5 1 -10 -4 -10 -6 0
-11 5 -11 10 0 6 2 10 4 10 3 0 8 -4 11 -10z m-230 -40 c3 -6 -1 -7 -9 -4 -18
7 -21 14 -7 14 6 0 13 -4 16 -10z m3366 -7 c13 -17 13 -17 -6 -3 -11 8 -22 16
-24 17 -2 2 0 3 6 3 6 0 17 -8 24 -17z m39 -32 c0 -20 -2 -23 -10 -11 -6 10
-10 11 -10 3 0 -7 -4 -13 -8 -13 -5 0 -9 7 -9 15 0 8 6 15 14 15 16 0 17 12 1
30 -11 12 -10 12 5 1 9 -7 17 -25 17 -40z m-97 12 c-3 -10 -13 -26 -21 -36
-19 -21 -10 -32 15 -18 15 7 20 7 20 -2 0 -7 -7 -13 -16 -14 -9 0 -27 -3 -39
-7 l-24 -5 24 32 c14 18 27 40 31 50 3 9 9 17 11 17 3 0 3 -8 -1 -17z m147 1
c0 -8 -5 -12 -10 -9 -6 4 -8 11 -5 16 9 14 15 11 15 -7z m-3571 -18 c6 -4 11
-3 11 1 0 5 9 9 20 9 11 0 19 -5 17 -10 -4 -12 -46 -15 -53 -4 -3 4 -9 6 -13
4 -21 -13 -68 -15 -68 -3 0 14 65 16 86 3z m-132 -44 c8 -14 6 -17 -18 -17
-19 0 -27 5 -26 16 1 21 31 21 44 1z m73 2 c0 -2 -15 -4 -32 -4 -23 0 -29 3
-19 9 12 8 51 4 51 -5z m-133 -11 c0 -8 -6 -9 -19 -2 -10 5 -18 11 -18 12 0 2
8 3 18 3 10 0 19 -6 19 -13z m208 -1 c-3 -3 -11 0 -18 7 -9 10 -8 11 6 5 10
-3 15 -9 12 -12z m3446 -5 c-10 -9 -11 -8 -5 6 3 10 9 15 12 12 3 -3 0 -11 -7
-18z m-3565 -26 c-4 -6 -14 -7 -23 -4 -15 6 -14 7 3 13 22 9 29 6 20 -9z m-71
-4 c12 -10 14 -16 7 -21 -15 -9 -34 2 -27 15 4 5 1 9 -4 9 -11 0 -15 -13 -12
-37 1 -7 -2 -13 -7 -13 -12 0 -10 43 3 52 14 11 19 10 40 -5z m39 -39 c-3 -4
-9 -8 -15 -8 -5 0 -9 4 -9 8 0 5 7 9 15 9 8 0 12 -4 9 -9z m53 6 c-3 -3 -12
-4 -19 -1 -8 3 -5 6 6 6 11 1 17 -2 13 -5z m3390 -29 c0 -8 -6 -15 -14 -15
-11 0 -17 -25 -16 -67 1 -7 -3 -11 -7 -8 -5 3 -11 1 -15 -5 -8 -13 -24 -4 -21
13 1 12 63 97 70 97 2 0 3 -7 3 -15z m-3512 -4 c3 -5 1 -12 -5 -16 -5 -3 -10
1 -10 9 0 18 6 21 15 7z m3435 -75 c0 -3 -4 -8 -10 -11 -5 -3 -10 -1 -10 4 0
6 5 11 10 11 6 0 10 -2 10 -4z m-3473 -338 c-3 -8 -6 -5 -6 6 -1 11 2 17 5 13
3 -3 4 -12 1 -19z m0 -160 c-3 -8 -6 -5 -6 6 -1 11 2 17 5 13 3 -3 4 -12 1
-19z m2258 -347 l40 -9 -35 0 c-19 0 -46 4 -60 8 -20 6 -21 8 -5 8 11 1 38 -3
60 -7z m115 -25 c0 -2 -9 -6 -20 -9 -11 -3 -18 -1 -14 4 5 9 34 13 34 5z m-7
-31 c-3 -9 -8 -14 -10 -11 -3 3 -2 9 2 15 9 16 15 13 8 -4z m-30 -40 c-21 -16
-28 -12 -20 9 4 9 13 13 22 10 14 -6 13 -8 -2 -19z m-97 -72 c-6 -6 -36 9 -36
18 0 5 9 4 20 -3 10 -7 18 -14 16 -15z m-1161 -723 c3 -6 -1 -7 -9 -4 -18 7
-21 14 -7 14 6 0 13 -4 16 -10z m102 -26 c-3 -3 -12 -4 -19 -1 -8 3 -5 6 6 6
11 1 17 -2 13 -5z m177 -23 c4 -5 -3 -7 -14 -4 -23 6 -26 13 -6 13 8 0 17 -4
20 -9z m63 -107 c-3 -3 -12 -4 -19 -1 -8 3 -5 6 6 6 11 1 17 -2 13 -5z m-62
-73 c3 -5 2 -12 -3 -15 -5 -3 -9 1 -9 9 0 17 3 19 12 6z m60 -11 c3 -5 1 -10
-4 -10 -6 0 -11 5 -11 10 0 6 2 10 4 10 3 0 8 -4 11 -10z m-80 -29 c3 -5 2
-12 -3 -15 -5 -3 -9 1 -9 9 0 17 3 19 12 6z m93 -16 c3 -3 -4 -4 -16 -2 -12 2
-24 6 -28 10 -4 3 4 4 16 2 12 -2 25 -7 28 -10z m112 -108 c0 -8 -7 -14 -15
-14 -11 0 -12 4 -4 14 6 7 13 13 15 13 2 0 4 -6 4 -13z m-397 -94 c-7 -2 -19
-2 -25 0 -7 3 -2 5 12 5 14 0 19 -2 13 -5z"/>
<path d="M4873 8616 c-22 -22 -21 -36 1 -36 6 0 4 5 -4 10 -9 6 -10 10 -3 10
7 0 17 9 23 20 14 26 10 25 -17 -4z"/>
<path d="M4815 8570 c-8 -13 5 -13 25 0 13 8 13 10 -2 10 -9 0 -20 -4 -23 -10z"/>
<path d="M4798 8543 c7 -3 16 -2 19 1 4 3 -2 6 -13 5 -11 0 -14 -3 -6 -6z"/>
<path d="M4785 8480 c3 -5 8 -10 11 -10 2 0 4 5 4 10 0 6 -5 10 -11 10 -5 0
-7 -4 -4 -10z"/>
<path d="M4730 8466 c0 -8 4 -17 9 -20 10 -7 23 19 14 28 -11 11 -23 6 -23 -8z"/>
<path d="M4696 8445 c4 -8 10 -12 15 -9 11 6 2 24 -11 24 -5 0 -7 -7 -4 -15z"/>
<path d="M4707 8374 c2 -7 11 -10 19 -7 19 7 18 10 -5 16 -13 3 -18 1 -14 -9z"/>
<path d="M4660 8365 c0 -10 29 -24 34 -17 3 6 -3 12 -14 15 -11 3 -20 4 -20 2z"/>
<path d="M4621 8326 c-9 -11 -7 -15 8 -19 14 -3 17 0 14 14 -6 23 -7 23 -22 5z"/>
<path d="M4684 8326 c-16 -13 -17 -17 -5 -28 10 -9 12 -9 7 0 -4 6 -3 12 2 12
6 0 12 7 16 15 7 19 5 19 -20 1z"/>
<path d="M4551 8213 c-1 -12 4 -25 9 -28 12 -7 12 2 0 30 -8 19 -9 19 -9 -2z"/>
<path d="M4528 8158 c-16 -16 -14 -20 10 -17 4 1 6 6 4 12 -2 6 5 3 16 -6 16
-15 20 -15 25 -4 3 9 -3 18 -16 24 -17 7 -26 5 -39 -9z"/>
<path d="M4488 8125 c5 -29 8 -31 15 -11 3 8 0 19 -7 25 -10 9 -12 6 -8 -14z"/>
<path d="M4396 7991 c-3 -5 1 -11 9 -15 9 -3 15 0 15 9 0 16 -16 20 -24 6z"/>
<path d="M4300 7910 c-12 -7 -10 -9 7 -7 12 0 19 5 17 9 -6 10 -6 10 -24 -2z"/>
<path d="M4380 7883 c0 -14 -2 -15 -9 -4 -6 10 -13 11 -27 3 -18 -10 -18 -11
-1 -17 9 -4 23 -5 31 -2 8 3 17 -1 20 -9 6 -17 26 -10 26 9 0 8 -3 8 -9 -1 -7
-11 -10 -10 -15 3 -3 9 -4 21 0 26 3 5 0 9 -5 9 -6 0 -11 -8 -11 -17z"/>
<path d="M4302 7870 c-15 -24 -16 -44 -2 -35 6 3 10 2 10 -4 0 -5 -6 -12 -12
-14 -7 -3 -3 -6 10 -6 19 -1 21 2 13 17 -6 10 -7 28 -4 40 7 27 2 28 -15 2z"/>
<path d="M4244 7845 c-9 -22 1 -29 15 -11 8 10 9 16 1 21 -5 3 -13 -1 -16 -10z"/>
<path d="M4274 7791 c19 -7 19 -8 -2 -13 -12 -4 -22 -2 -22 3 0 5 -5 9 -12 9
-9 0 -9 -3 0 -12 14 -14 76 -22 67 -8 -3 6 1 10 10 10 9 0 14 4 11 8 -3 5 -20
9 -38 9 -25 1 -28 -1 -14 -6z"/>
<path d="M4170 7736 c0 -2 8 -10 18 -17 15 -13 16 -12 3 4 -13 16 -21 21 -21
13z"/>
<path d="M4237 7709 c7 -7 15 -10 18 -7 3 3 -2 9 -12 12 -14 6 -15 5 -6 -5z"/>
<path d="M4174 7703 c4 -7 2 -13 -4 -13 -6 0 -9 -4 -6 -9 3 -5 -1 -14 -9 -21
-17 -14 -20 -40 -5 -40 5 0 7 8 3 18 -3 9 -3 14 2 10 4 -4 14 4 22 19 10 20
11 29 2 37 -9 8 -10 8 -5 -1z"/>
<path d="M4083 7672 c-9 -5 -6 -12 10 -21 19 -13 21 -12 10 1 -7 8 -10 18 -6
21 9 9 1 8 -14 -1z"/>
<path d="M4060 7639 c0 -5 5 -7 10 -4 6 3 10 8 10 11 0 2 -4 4 -10 4 -5 0 -10
-5 -10 -11z"/>
<path d="M4176 7643 c-3 -3 -6 -18 -6 -31 0 -24 15 -23 15 1 0 7 8 11 18 11 9
-1 17 0 17 2 0 8 -38 23 -44 17z"/>
<path d="M4076 7602 c-2 -4 7 -9 20 -10 15 -1 22 2 19 8 -7 12 -32 13 -39 2z"/>
<path d="M3918 7543 c6 -2 18 -2 25 0 6 3 1 5 -13 5 -14 0 -19 -2 -12 -5z"/>
<path d="M3849 7493 c-13 -16 -12 -17 4 -4 16 13 21 21 13 21 -2 0 -10 -8 -17
-17z"/>
<path d="M3809 7421 c8 -5 9 -11 3 -15 -20 -12 -9 -46 15 -46 13 0 23 5 23 11
0 5 4 7 10 4 6 -3 7 1 4 9 -3 9 -10 16 -16 16 -5 0 -6 5 -2 12 4 6 3 8 -4 4
-6 -3 -13 -2 -17 4 -3 5 -12 10 -18 10 -8 0 -8 -3 2 -9z m24 -37 c-4 -12 -8
-13 -14 -3 -9 15 -2 32 11 24 5 -3 6 -13 3 -21z"/>
<path d="M3770 7410 c0 -5 5 -10 11 -10 5 0 7 5 4 10 -3 6 -8 10 -11 10 -2 0
-4 -4 -4 -10z"/>
<path d="M3776 7373 c-6 -14 -5 -15 5 -6 7 7 10 15 7 18 -3 3 -9 -2 -12 -12z"/>
<path d="M3676 7361 c-4 -5 3 -7 14 -4 23 6 26 13 6 13 -8 0 -17 -4 -20 -9z"/>
<path d="M3743 7352 c-1 -11 6 -18 18 -19 10 -1 19 3 19 8 0 6 -4 7 -10 4 -5
-3 -10 1 -10 9 0 22 -15 20 -17 -2z"/>
<path d="M3694 7314 c0 -29 2 -30 15 -5 8 14 7 20 -2 24 -8 3 -13 -4 -13 -19z"/>
<path d="M3723 7311 c-4 -9 -8 -19 -10 -23 -2 -4 2 -10 8 -14 8 -5 9 -3 5 5
-5 8 0 14 13 18 12 3 21 11 21 17 0 18 -31 15 -37 -3z"/>
<path d="M3605 7270 c-3 -6 1 -7 9 -4 18 7 21 14 7 14 -6 0 -13 -4 -16 -10z"/>
<path d="M3641 7237 c2 -1 13 -9 24 -17 19 -14 19 -14 6 3 -7 9 -18 17 -24 17
-6 0 -8 -1 -6 -3z"/>
<path d="M3580 7195 c7 -9 15 -13 17 -11 7 7 -7 26 -19 26 -6 0 -6 -6 2 -15z"/>
<path d="M3541 7175 c1 -19 18 -51 18 -35 0 8 -4 22 -9 30 -5 8 -9 11 -9 5z"/>
<path d="M3437 7096 c-4 -10 -1 -13 8 -9 8 3 12 9 9 14 -7 12 -11 11 -17 -5z"/>
<path d="M3418 7063 c7 -3 16 -2 19 1 4 3 -2 6 -13 5 -11 0 -14 -3 -6 -6z"/>
<path d="M3307 7039 c7 -7 15 -10 18 -7 3 3 -2 9 -12 12 -14 6 -15 5 -6 -5z"/>
<path d="M3287 6999 c4 -15 8 -17 14 -8 8 14 3 29 -11 29 -4 0 -6 -9 -3 -21z"/>
<path d="M3400 6991 c0 -5 9 -7 20 -4 11 3 20 7 20 9 0 2 -9 4 -20 4 -11 0
-20 -4 -20 -9z"/>
<path d="M3218 6952 c-4 -12 1 -18 13 -18 14 0 15 4 8 18 -5 10 -11 18 -13 18
-2 0 -6 -8 -8 -18z"/>
<path d="M3098 6943 c7 -3 16 -2 19 1 4 3 -2 6 -13 5 -11 0 -14 -3 -6 -6z"/>
<path d="M3656 7155 c-3 -8 -1 -15 4 -15 13 0 22 18 11 24 -5 3 -11 -1 -15 -9z"/>
<path d="M6495 6690 c-3 -5 -1 -10 4 -10 6 0 11 5 11 10 0 6 -2 10 -4 10 -3 0
-8 -4 -11 -10z"/>
<path d="M7215 7300 c-3 -5 3 -10 14 -10 10 0 22 -6 24 -12 4 -10 6 -10 6 -1
1 17 -36 36 -44 23z"/>
<path d="M7080 7280 c0 -5 5 -10 11 -10 5 0 7 5 4 10 -3 6 -8 10 -11 10 -2 0
-4 -4 -4 -10z"/>
<path d="M7245 7200 c-3 -5 -1 -10 4 -10 6 0 11 5 11 10 0 6 -2 10 -4 10 -3 0
-8 -4 -11 -10z"/>
<path d="M7022 7144 c10 -10 20 -16 22 -13 3 3 -5 11 -17 18 -21 13 -21 12 -5
-5z"/>
<path d="M6935 7061 c-4 -12 -12 -17 -24 -14 -13 3 -17 -1 -16 -16 1 -12 6
-26 13 -33 8 -8 9 -5 5 10 -4 17 -1 20 13 18 15 -3 19 3 21 25 3 33 -3 38 -12
10z"/>
<path d="M7053 7065 c0 -8 4 -12 9 -9 4 3 8 9 8 15 0 5 -4 9 -8 9 -5 0 -9 -7
-9 -15z"/>
<path d="M6840 6962 c0 -5 7 -9 15 -9 8 0 12 4 9 9 -3 4 -9 8 -15 8 -5 0 -9
-4 -9 -8z"/>
<path d="M6886 6962 c-3 -5 1 -9 9 -9 8 0 12 4 9 9 -3 4 -7 8 -9 8 -2 0 -6 -4
-9 -8z"/>
<path d="M6846 6875 c-9 -26 -7 -32 5 -12 6 10 9 21 6 23 -2 3 -7 -2 -11 -11z"/>
<path d="M6790 6868 c0 -6 6 -8 14 -5 8 3 17 2 20 -4 2 -5 3 -4 2 2 -3 15 -36
21 -36 7z"/>
<path d="M6815 6801 c6 -11 4 -13 -10 -7 -18 7 -18 6 0 -14 10 -11 19 -20 20
-20 6 0 -3 41 -10 47 -4 5 -4 2 0 -6z"/>
<path d="M6658 6713 c7 -3 16 -2 19 1 4 3 -2 6 -13 5 -11 0 -14 -3 -6 -6z"/>
<path d="M6577 6659 c7 -7 15 -10 18 -7 3 3 -2 9 -12 12 -14 6 -15 5 -6 -5z"/>
<path d="M6525 6630 c-4 -6 -11 -8 -16 -5 -5 4 -9 1 -9 -4 0 -16 16 -13 30 4
7 8 10 15 7 15 -3 0 -9 -5 -12 -10z"/>
<path d="M6385 6520 c3 -5 8 -10 11 -10 2 0 4 5 4 10 0 6 -5 10 -11 10 -5 0
-7 -4 -4 -10z"/>
<path d="M6294 6489 c-3 -6 -1 -16 5 -22 9 -9 10 -7 5 7 -6 15 -4 17 6 11 9
-5 11 -4 6 3 -9 15 -13 15 -22 1z"/>
<path d="M6205 6350 c3 -5 8 -10 11 -10 2 0 4 5 4 10 0 6 -5 10 -11 10 -5 0
-7 -4 -4 -10z"/>
<path d="M6145 6341 c-3 -5 -2 -12 3 -15 5 -3 9 1 9 9 0 17 -3 19 -12 6z"/>
<path d="M6065 6261 c-3 -5 -2 -12 3 -15 5 -3 9 1 9 9 0 17 -3 19 -12 6z"/>
<path d="M5535 5839 c-11 -17 1 -21 15 -4 8 9 8 15 2 15 -6 0 -14 -5 -17 -11z"/>
<path d="M5356 5681 c-12 -19 1 -25 26 -12 13 6 15 9 6 7 -9 -3 -18 0 -21 7
-2 8 -6 7 -11 -2z"/>
<path d="M5326 5641 c9 -9 34 -9 34 -1 0 5 -9 8 -20 7 -10 -1 -17 -3 -14 -6z"/>
<path d="M7262 5225 c0 -16 2 -22 5 -12 2 9 2 23 0 30 -3 6 -5 -1 -5 -18z"/>
<path d="M4568 4881 c12 -11 31 -18 42 -16 14 3 17 -1 13 -12 -4 -11 -2 -14 5
-9 21 13 13 36 -13 37 -33 2 -37 3 -55 12 -8 5 -5 -1 8 -12z"/>
<path d="M7143 4888 c-15 -20 -25 -38 -20 -38 3 0 12 11 21 25 17 26 16 35 -1
13z"/>
<path d="M4525 4870 c-3 -5 5 -15 19 -21 14 -7 23 -15 21 -19 -2 -4 2 -7 9 -7
7 0 13 6 13 13 0 7 -3 13 -6 12 -20 -2 -31 4 -31 17 0 17 -16 20 -25 5z"/>
<path d="M4510 4832 c0 -4 9 -8 20 -9 11 -1 20 2 20 8 0 5 -9 9 -20 9 -11 0
-20 -4 -20 -8z"/>
<path d="M7100 4820 c-6 -11 -8 -20 -6 -20 3 0 10 9 16 20 6 11 8 20 6 20 -3
0 -10 -9 -16 -20z"/>
<path d="M7039 4743 l-24 -28 28 24 c25 23 32 31 24 31 -2 0 -14 -12 -28 -27z"/>
<path d="M4510 4739 c0 -5 -4 -7 -10 -4 -5 3 -10 1 -10 -4 0 -13 3 -13 24 -5
18 7 22 24 6 24 -5 0 -10 -5 -10 -11z"/>
<path d="M4600 4719 c0 -5 5 -7 10 -4 6 3 10 8 10 11 0 2 -4 4 -10 4 -5 0 -10
-5 -10 -11z"/>
<path d="M4550 4695 c0 -8 2 -15 4 -15 2 0 6 7 10 15 3 8 1 15 -4 15 -6 0 -10
-7 -10 -15z"/>
<path d="M6984 4688 l-19 -23 23 19 c12 11 22 21 22 23 0 8 -8 2 -26 -19z"/>
<path d="M4575 4689 c-4 -6 -5 -12 -2 -15 2 -3 7 2 10 11 7 17 1 20 -8 4z"/>
<path d="M4585 4661 c-3 -5 -2 -12 3 -15 5 -3 9 1 9 9 0 17 -3 19 -12 6z"/>
<path d="M4551 4643 c0 -13 4 -23 9 -23 6 0 10 -6 10 -12 0 -7 8 -22 17 -33
13 -16 15 -17 10 -2 -6 15 3 22 25 18 4 0 5 6 2 14 -4 8 -10 15 -16 15 -5 0
-6 -4 -3 -10 9 -15 -11 -12 -24 3 -6 8 -7 18 -3 22 4 5 2 5 -5 1 -6 -3 -13 1
-16 11 -4 14 -5 13 -6 -4z"/>
<path d="M4523 4635 c0 -8 4 -12 9 -9 5 3 6 10 3 15 -9 13 -12 11 -12 -6z"/>
<path d="M6905 4624 c-19 -15 -22 -21 -9 -15 18 9 52 41 43 41 -2 0 -17 -12
-34 -26z"/>
<path d="M4517 4597 c-3 -8 1 -14 8 -14 7 0 11 6 8 14 -3 7 -6 13 -8 13 -2 0
-5 -6 -8 -13z"/>
<path d="M4576 4492 c-3 -5 1 -9 9 -9 8 0 12 4 9 9 -3 4 -7 8 -9 8 -2 0 -6 -4
-9 -8z"/>
<path d="M6650 4490 c-8 -5 -10 -10 -5 -10 6 0 17 5 25 10 8 5 11 10 5 10 -5
0 -17 -5 -25 -10z"/>
<path d="M6500 4450 c-20 -6 -21 -8 -5 -8 11 0 31 4 45 8 20 6 21 8 5 8 -11 0
-31 -4 -45 -8z"/>
<path d="M5933 4433 c9 -2 25 -2 35 0 9 3 1 5 -18 5 -19 0 -27 -2 -17 -5z"/>
<path d="M6418 4433 c6 -2 18 -2 25 0 6 3 1 5 -13 5 -14 0 -19 -2 -12 -5z"/>
<path d="M2436 3959 c-56 -13 -92 -44 -111 -94 -47 -122 42 -237 172 -222 135
15 191 179 96 279 -14 15 -40 30 -57 33 -17 4 -38 8 -46 10 -8 1 -32 -1 -54
-6z"/>
<path d="M1360 3175 l0 -705 435 0 436 0 -3 128 -3 127 -275 2 c-151 2 -278 3
-282 3 -5 0 -8 259 -8 575 l0 575 -150 0 -150 0 0 -705z"/>
<path d="M3930 3175 l0 -705 145 0 145 0 0 158 0 158 40 39 c24 23 43 35 48
30 5 -6 68 -94 141 -197 l133 -188 170 0 c133 0 168 3 162 13 -12 18 -208 284
-318 431 l-97 129 24 26 c14 14 106 114 206 221 l181 195 -178 3 -177 2 -30
-34 c-16 -19 -91 -105 -165 -191 l-135 -156 -3 385 -2 386 -145 0 -145 0 0
-705z"/>
<path d="M5000 3175 l0 -705 435 0 435 0 0 130 0 130 -290 0 -290 0 0 575 0
575 -145 0 -145 0 0 -705z"/>
<path d="M3294 3501 c-51 -13 -124 -54 -172 -95 l-44 -40 3 60 4 59 -142 3
-143 3 0 -511 0 -510 145 0 145 0 0 314 c0 207 4 324 11 347 31 91 102 135
209 127 72 -5 105 -26 137 -89 22 -43 22 -51 23 -371 l0 -328 146 0 146 0 -4
368 c-4 364 -4 367 -29 438 -41 113 -101 175 -201 211 -49 18 -188 26 -234 14z"/>
<path d="M6251 3499 c-125 -24 -254 -121 -314 -237 -49 -93 -67 -168 -67 -279
0 -174 41 -286 142 -387 104 -103 221 -147 393 -147 164 1 270 39 366 134 44
43 86 104 77 112 -2 1 -47 23 -102 49 l-98 46 -46 -40 c-53 -48 -121 -70 -209
-70 -72 0 -124 18 -167 58 -32 31 -76 116 -76 150 l0 22 345 0 345 0 0 93 c0
51 -7 119 -15 151 -22 85 -80 189 -132 237 -105 97 -281 140 -442 108z m219
-241 c46 -24 92 -85 104 -140 l6 -28 -215 0 -215 0 6 28 c12 53 58 115 103
139 60 31 149 32 211 1z"/>
<path d="M7230 3495 c-96 -20 -238 -77 -254 -103 -5 -8 39 -186 50 -204 3 -4
37 9 77 28 133 63 297 81 374 40 42 -21 72 -65 82 -120 l8 -46 -141 0 c-233 0
-330 -26 -413 -109 -118 -119 -109 -351 18 -452 77 -61 122 -74 254 -74 111 0
125 2 183 29 35 16 74 42 87 58 13 15 26 28 29 28 3 0 6 -22 6 -50 l0 -50 128
0 127 0 -2 148 c-11 607 -9 574 -32 637 -34 96 -84 154 -171 198 -41 20 -99
42 -129 47 -73 13 -202 11 -281 -5z m335 -642 c-13 -109 -58 -161 -159 -184
-73 -16 -122 -5 -163 36 -38 38 -44 85 -18 135 28 54 73 68 229 69 l118 1 -7
-57z"/>
<path d="M8447 3500 c-55 -14 -97 -38 -139 -78 l-38 -36 0 52 0 52 -130 0
-130 0 0 -660 0 -660 135 0 135 0 0 181 0 180 26 -20 c77 -61 244 -80 357 -42
209 72 328 287 313 563 -15 277 -176 464 -409 474 -45 2 -99 -1 -120 -6z m131
-260 c71 -37 112 -131 112 -260 0 -105 -22 -173 -73 -226 -95 -98 -256 -80
-314 36 -20 39 -23 59 -23 171 0 134 8 175 47 227 59 80 159 101 251 52z"/>
<path d="M2330 2980 l0 -510 150 0 150 0 0 510 0 510 -150 0 -150 0 0 -510z"/>
</g>
</svg>
