<?xml version="1.0" standalone="no"?>
<!DOCTYPE svg PUBLIC "-//W3C//DTD SVG 20010904//EN"
 "http://www.w3.org/TR/2001/REC-SVG-20010904/DTD/svg10.dtd">
<svg version="1.0" xmlns="http://www.w3.org/2000/svg"
 width="32.000000pt" height="32.000000pt" viewBox="0 0 32.000000 32.000000"
 preserveAspectRatio="xMidYMid meet">

<g transform="translate(0.000000,32.000000) scale(0.100000,-0.100000)"
fill="#000000" stroke="none">
<path d="M72 248 c-16 -16 -16 -160 0 -176 18 -18 162 -16 177 2 8 9 11 45 9
98 l-3 83 -85 3 c-58 2 -89 -1 -98 -10z m152 -24 c21 -21 20 -40 -4 -64 -26
-26 -48 -16 -24 11 9 10 14 25 10 35 -6 15 -9 15 -29 -5 -13 -11 -28 -21 -33
-21 -12 0 -38 -59 -30 -68 4 -3 15 -1 24 6 48 34 72 23 29 -14 -34 -29 -63
-31 -77 -5 -15 29 -14 32 39 89 50 55 69 62 95 36z m-44 -53 c0 -13 -29 -35
-37 -28 -7 8 15 37 28 37 5 0 9 -4 9 -9z m65 -90 c-3 -6 -11 -11 -16 -11 -5 0
-4 6 3 14 14 16 24 13 13 -3z"/>
</g>
</svg>
